<svg fill="#64ffda" xmlns="http://www.w3.org/2000/svg" role="img" viewBox="0 0 60 60"><title>Service/Settings Gear</title><path d="M47.79 33.37l-.93-3.61c.42-1.3.64-2.73.64-4.22 0-7.73-6.27-14-14-14-7.73 0-14 6.27-14 14 0 1.5.22 2.92.64 4.22l-.93 3.61c-4.99 1.4-8.54 6.13-8.54 11.63 0 6.63 5.37 12 12 12 3.82 0 7.35-1.78 9.77-4.8l2.23 2.11c-2.3 2.5-5.55 3.99-9.01 4.09l.01 3.51c0 1.1.9 2 2 2h4c1.1 0 2-.9 2-2v-3.51c-3.46-.1-6.7-1.58-9-4.09l2.23-2.11c2.42 3.02 5.95 4.8 9.77 4.8 6.63 0 12-5.37 12-12 0-5.5-3.55-10.23-8.54-11.63zm-17.79 17.63c-5.52 0-10-4.48-10-10s4.48-10 10-10 10 4.48 10 10-4.48 10-10 10zM30 20c-4.42 0-8 3.58-8 8s3.58 8 8 8 8-3.58 8-8-3.58-8-8-8z"></path></svg>
